<?xml version="1.0" standalone="no"?><!DOCTYPE svg PUBLIC "-//W3C//DTD SVG 1.1//EN" "http://www.w3.org/Graphics/SVG/1.1/DTD/svg11.dtd"><svg class="icon" width="200px" height="200.00px" viewBox="0 0 1024 1024" version="1.1" xmlns="http://www.w3.org/2000/svg"><path d="M371.78 831.15c-64-11.99-114.15-67.41-124.99-138.15-17.92-116.83-17.92-236.16 0-353 10.85-70.74 60.99-126.16 124.99-138.15 105.71-19.8 213.67-19.8 319.38 0 64 11.99 114.15 67.41 124.99 138.15 17.92 116.83 17.92 236.16 0 353-10.85 70.74-60.99 126.16-124.99 138.15-105.71 19.8-213.67 19.8-319.38 0z" fill="#333333" /><path d="M705.3 717c-1.33 0-2.68-0.11-4.04-0.34-13.07-2.21-21.87-14.6-19.65-27.67 19.4-114.45 19.4-230.52 0-344.98-2.21-13.07 6.58-25.46 19.65-27.67 13.06-2.22 25.46 6.58 27.67 19.65 20.3 119.78 20.3 241.24 0 361.02-1.98 11.71-12.14 19.99-23.63 19.99z" fill="#FFFFFF" /><path d="M291.73 404.79c-1.5 0-3.02-0.15-4.54-0.46-30.2-6.19-60.82-6.19-91.02 0-12.17 2.5-24.06-5.35-26.56-17.52s5.35-24.07 17.52-26.56c36.2-7.42 72.9-7.42 109.1 0 12.17 2.5 20.02 14.39 17.52 26.56-2.18 10.65-11.56 17.98-22.02 17.98zM241.68 678.03c-18.23 0-36.45-1.86-54.55-5.57-12.17-2.5-20.02-14.39-17.52-26.56s14.39-20.02 26.56-17.52c30.2 6.19 60.82 6.19 91.02 0 12.18-2.5 24.07 5.35 26.56 17.52 2.5 12.17-5.35 24.07-17.52 26.56-18.1 3.71-36.32 5.57-54.55 5.57z" fill="#333333" /></svg>